<mxfile host="app.diagrams.net" modified="2023-12-14T15:31:58.089Z" agent="Mozilla/5.0 (Macintosh; Intel Mac OS X 10_15_7) AppleWebKit/605.1.15 (KHTML, like Gecko) Version/16.3 Safari/605.1.15" etag="2p88V7jjECCma4tG8J_G" version="22.1.8" type="github">
  <diagram name="Page-1" id="SkYU8KdAvCaDjnTelJPn">
    <mxGraphModel dx="1828" dy="621" grid="1" gridSize="10" guides="1" tooltips="1" connect="1" arrows="1" fold="1" page="1" pageScale="1" pageWidth="850" pageHeight="1100" math="1" shadow="0">
      <root>
        <mxCell id="0" />
        <mxCell id="1" parent="0" />
        <mxCell id="L5jHSvvYiYVI9-WfiXNY-1" value="" style="shape=image;verticalLabelPosition=bottom;labelBackgroundColor=default;verticalAlign=top;aspect=fixed;imageAspect=0;image=https://i.etsystatic.com/19934258/r/il/329e2e/1883115379/il_570xN.1883115379_aqot.jpg;" parent="1" vertex="1">
          <mxGeometry x="577.5" y="170" width="80" height="80" as="geometry" />
        </mxCell>
        <mxCell id="L5jHSvvYiYVI9-WfiXNY-2" value="Classical Verifier" style="rounded=0;whiteSpace=wrap;html=1;" parent="1" vertex="1">
          <mxGeometry x="527.5" y="270" width="110" height="30" as="geometry" />
        </mxCell>
        <mxCell id="L5jHSvvYiYVI9-WfiXNY-3" value="" style="image;html=1;image=img/lib/clip_art/computers/Laptop_128x128.png" parent="1" vertex="1">
          <mxGeometry x="507.5" y="179" width="80" height="80" as="geometry" />
        </mxCell>
        <mxCell id="L5jHSvvYiYVI9-WfiXNY-4" value="" style="sketch=0;outlineConnect=0;fontColor=#232F3E;gradientColor=none;fillColor=#ED7100;strokeColor=none;dashed=0;verticalLabelPosition=bottom;verticalAlign=top;align=center;html=1;fontSize=12;fontStyle=0;aspect=fixed;pointerEvents=1;shape=mxgraph.aws4.braket_qpu;" parent="1" vertex="1">
          <mxGeometry x="180" y="180" width="78" height="78" as="geometry" />
        </mxCell>
        <mxCell id="L5jHSvvYiYVI9-WfiXNY-5" value="Quantum Prover" style="rounded=0;whiteSpace=wrap;html=1;" parent="1" vertex="1">
          <mxGeometry x="164" y="270" width="110" height="30" as="geometry" />
        </mxCell>
        <mxCell id="L5jHSvvYiYVI9-WfiXNY-6" value="" style="endArrow=classic;html=1;rounded=0;" parent="1" edge="1">
          <mxGeometry width="50" height="50" relative="1" as="geometry">
            <mxPoint x="300" y="470" as="sourcePoint" />
            <mxPoint x="480" y="470" as="targetPoint" />
          </mxGeometry>
        </mxCell>
        <mxCell id="L5jHSvvYiYVI9-WfiXNY-7" value="QMA Batch \( x_1, \cdots, x_k \)" style="rounded=0;whiteSpace=wrap;html=1;" parent="1" vertex="1">
          <mxGeometry x="309" y="160" width="110" height="30" as="geometry" />
        </mxCell>
        <mxCell id="L5jHSvvYiYVI9-WfiXNY-8" value="Prover generates quantum proofs:&lt;br&gt;\( |\pi_j\rangle \leftarrow&amp;nbsp;\textcolor{red}{&lt;br&gt;P_{FHM}}(x_j, |\phi_j\rangle^{\otimes k(\lambda)}) \) for all \( j \in [k]\)" style="text;html=1;align=center;verticalAlign=middle;resizable=0;points=[];autosize=1;strokeColor=none;fillColor=none;" parent="1" vertex="1">
          <mxGeometry x="-20" y="310" width="390" height="60" as="geometry" />
        </mxCell>
        <mxCell id="L5jHSvvYiYVI9-WfiXNY-9" value="&lt;div style=&quot;border-color: var(--border-color); text-align: right;&quot;&gt;compute commitments for all \( j \in [k]\)&lt;/div&gt;&lt;div style=&quot;border-color: var(--border-color); text-align: right;&quot;&gt;\((\vec{y}_j, |st_j\rangle) \leftarrow \textcolor{green}{Commit}(PK, |\pi_j\rangle)\)&lt;/div&gt;&lt;div style=&quot;border-color: var(--border-color); text-align: right;&quot;&gt;&lt;br&gt;&lt;/div&gt;&lt;div style=&quot;border-color: var(--border-color); text-align: right;&quot;&gt;\(\mathsf{FHE.Enc}(\vec{y}_{i^*})\gets \mathsf{FHE.Project}(\vec{y}, \mathsf{FHE.Enc}(i^*))\)&lt;/div&gt;" style="text;html=1;strokeColor=none;fillColor=none;align=center;verticalAlign=middle;whiteSpace=wrap;rounded=0;" parent="1" vertex="1">
          <mxGeometry x="-25" y="420" width="334" height="30" as="geometry" />
        </mxCell>
        <mxCell id="L5jHSvvYiYVI9-WfiXNY-10" value="\( \mathsf{FHE.Enc}(\vec{y}_{i^*})\)" style="text;html=1;strokeColor=none;fillColor=none;align=center;verticalAlign=middle;whiteSpace=wrap;rounded=0;" parent="1" vertex="1">
          <mxGeometry x="305" y="440" width="180" height="30" as="geometry" />
        </mxCell>
        <mxCell id="L5jHSvvYiYVI9-WfiXNY-11" value="\(c \xleftarrow{$} \{0,1\}\)" style="text;html=1;align=center;verticalAlign=middle;resizable=0;points=[];autosize=1;strokeColor=none;fillColor=none;" parent="1" vertex="1">
          <mxGeometry x="450" y="480" width="150" height="30" as="geometry" />
        </mxCell>
        <mxCell id="L5jHSvvYiYVI9-WfiXNY-12" value="" style="endArrow=classic;html=1;rounded=0;" parent="1" edge="1">
          <mxGeometry width="50" height="50" relative="1" as="geometry">
            <mxPoint x="480" y="531" as="sourcePoint" />
            <mxPoint x="300" y="531" as="targetPoint" />
          </mxGeometry>
        </mxCell>
        <mxCell id="L5jHSvvYiYVI9-WfiXNY-13" value="\( c \)" style="text;html=1;align=center;verticalAlign=middle;resizable=0;points=[];autosize=1;strokeColor=none;fillColor=none;" parent="1" vertex="1">
          <mxGeometry x="369" y="501" width="50" height="30" as="geometry" />
        </mxCell>
        <mxCell id="L5jHSvvYiYVI9-WfiXNY-14" value="&lt;div style=&quot;border-color: var(--border-color); caret-color: rgb(0, 0, 0); color: rgb(0, 0, 0); font-family: Helvetica; font-size: 12px; font-style: normal; font-variant-caps: normal; font-weight: 400; letter-spacing: normal; text-align: right; text-indent: 0px; text-transform: none; word-spacing: 0px; -webkit-text-stroke-width: 0px; text-decoration: none;&quot;&gt;compute openings for all \( j \in [k]\)&lt;/div&gt;&lt;div style=&quot;border-color: var(--border-color); caret-color: rgb(0, 0, 0); color: rgb(0, 0, 0); font-family: Helvetica; font-size: 12px; font-style: normal; font-variant-caps: normal; font-weight: 400; letter-spacing: normal; text-align: right; text-indent: 0px; text-transform: none; word-spacing: 0px; -webkit-text-stroke-width: 0px; text-decoration: none;&quot;&gt;\(\vec{z}_j \leftarrow \textcolor{green}{Open}(|st_j\rangle, c_j)\)&lt;br&gt;&lt;/div&gt;&lt;div style=&quot;border-color: var(--border-color); caret-color: rgb(0, 0, 0); color: rgb(0, 0, 0); font-family: Helvetica; font-size: 12px; font-style: normal; font-variant-caps: normal; font-weight: 400; letter-spacing: normal; text-align: right; text-indent: 0px; text-transform: none; word-spacing: 0px; -webkit-text-stroke-width: 0px; text-decoration: none;&quot;&gt;&lt;br&gt;&lt;/div&gt;&lt;div style=&quot;border-color: var(--border-color); caret-color: rgb(0, 0, 0); color: rgb(0, 0, 0); font-family: Helvetica; font-size: 12px; font-style: normal; font-variant-caps: normal; font-weight: 400; letter-spacing: normal; text-align: right; text-indent: 0px; text-transform: none; word-spacing: 0px; -webkit-text-stroke-width: 0px; text-decoration: none;&quot;&gt;\(\mathsf{FHE.Enc(\vec{z}_{i^*})\gets \mathsf{FHE.Project}(\vec{z}, \mathsf{FHE.Enc}(i^*))} \)&lt;/div&gt;" style="text;whiteSpace=wrap;html=1;" parent="1" vertex="1">
          <mxGeometry y="531" width="298.5" height="69" as="geometry" />
        </mxCell>
        <mxCell id="L5jHSvvYiYVI9-WfiXNY-15" value="" style="endArrow=classic;html=1;rounded=0;" parent="1" edge="1">
          <mxGeometry width="50" height="50" relative="1" as="geometry">
            <mxPoint x="300" y="591" as="sourcePoint" />
            <mxPoint x="480" y="590" as="targetPoint" />
          </mxGeometry>
        </mxCell>
        <mxCell id="L5jHSvvYiYVI9-WfiXNY-18" value="" style="endArrow=classic;html=1;rounded=0;" parent="1" edge="1">
          <mxGeometry width="50" height="50" relative="1" as="geometry">
            <mxPoint x="480" y="410" as="sourcePoint" />
            <mxPoint x="300" y="410" as="targetPoint" />
          </mxGeometry>
        </mxCell>
        <mxCell id="L5jHSvvYiYVI9-WfiXNY-19" value="\( PK, \mathsf{FHE}.pk, \mathsf{FHE.Enc}(i^*) \)&amp;nbsp;" style="text;html=1;align=center;verticalAlign=middle;resizable=0;points=[];autosize=1;strokeColor=none;fillColor=none;" parent="1" vertex="1">
          <mxGeometry x="250" y="380" width="290" height="30" as="geometry" />
        </mxCell>
        <mxCell id="L5jHSvvYiYVI9-WfiXNY-20" value="&lt;div style=&quot;border-color: var(--border-color);&quot;&gt;Instance independent key generation&lt;/div&gt;&lt;div style=&quot;border-color: var(--border-color);&quot;&gt;&lt;span style=&quot;white-space: pre;&quot;&gt;&#x9;&lt;span style=&quot;white-space: pre;&quot;&gt;&#x9;&lt;/span&gt;&lt;/span&gt;\(r \xleftarrow{$} \{0,1\}^\lambda \)&lt;/div&gt;&lt;div style=&quot;border-color: var(--border-color);&quot;&gt;\((PK,SK)\leftarrow \textcolor{blue}{Gen}(1^\lambda, r)\)&lt;/div&gt;&lt;div style=&quot;border-color: var(--border-color);&quot;&gt;&lt;br&gt;&lt;/div&gt;&lt;div style=&quot;border-color: var(--border-color);&quot;&gt;Sample \(\mathsf{FHE}.pk\) and \(\mathsf{FHE}.sk\)&lt;/div&gt;" style="text;html=1;align=left;verticalAlign=middle;resizable=0;points=[];autosize=1;strokeColor=none;fillColor=none;" parent="1" vertex="1">
          <mxGeometry x="490" y="320" width="320" height="80" as="geometry" />
        </mxCell>
        <mxCell id="L5jHSvvYiYVI9-WfiXNY-21" value="" style="shape=image;html=1;verticalAlign=top;verticalLabelPosition=bottom;labelBackgroundColor=#ffffff;imageAspect=0;aspect=fixed;image=https://cdn1.iconfinder.com/data/icons/unicons-line-vol-3/24/exclamation-triangle-128.png;imageBackground=none;" parent="1" vertex="1">
          <mxGeometry x="634.5" y="211" width="48" height="48" as="geometry" />
        </mxCell>
        <mxCell id="yIEqXpMxeJQqJXoz-Uti-2" value="\( \mathsf{FHE.Enc}(\vec{z}_{i^*})\)" style="text;html=1;strokeColor=none;fillColor=none;align=center;verticalAlign=middle;whiteSpace=wrap;rounded=0;" vertex="1" parent="1">
          <mxGeometry x="298.5" y="565.5" width="180" height="30" as="geometry" />
        </mxCell>
        <mxCell id="yIEqXpMxeJQqJXoz-Uti-3" value="&lt;div style=&quot;border-color: var(--border-color); caret-color: rgb(0, 0, 0); color: rgb(0, 0, 0); font-family: Helvetica; font-size: 12px; font-style: normal; font-variant-caps: normal; font-weight: 400; letter-spacing: normal; text-indent: 0px; text-transform: none; word-spacing: 0px; -webkit-text-stroke-width: 0px; text-decoration: none;&quot;&gt;Decrypt and Verify&lt;/div&gt;&lt;div style=&quot;border-color: var(--border-color); caret-color: rgb(0, 0, 0); color: rgb(0, 0, 0); font-family: Helvetica; font-size: 12px; font-style: normal; font-variant-caps: normal; font-weight: 400; letter-spacing: normal; text-indent: 0px; text-transform: none; word-spacing: 0px; -webkit-text-stroke-width: 0px; text-decoration: none;&quot;&gt;\( y_{i^*} \gets \mathsf{FHE.Decrypt}_{sk}(\mathsf{FHE.Enc}(y_{i^*})\)&lt;/div&gt;&lt;div style=&quot;border-color: var(--border-color); caret-color: rgb(0, 0, 0); color: rgb(0, 0, 0); font-family: Helvetica; font-size: 12px; font-style: normal; font-variant-caps: normal; font-weight: 400; letter-spacing: normal; text-indent: 0px; text-transform: none; word-spacing: 0px; -webkit-text-stroke-width: 0px; text-decoration: none;&quot;&gt;&lt;div style=&quot;border-color: var(--border-color);&quot;&gt;\( z_{i^*} \gets \mathsf{FHE.Decrypt}_{sk}(\mathsf{FHE.Enc}(z_{i^*})\)&lt;/div&gt;&lt;div style=&quot;border-color: var(--border-color);&quot;&gt;&lt;br&gt;&lt;/div&gt;&lt;div style=&quot;border-color: var(--border-color);&quot;&gt;\( V_{VS}(x_{i^*}, y_{i^*}, z_{i^*}. r, c) \rightarrow 0, 1\)&lt;/div&gt;&lt;div&gt;&lt;br&gt;&lt;/div&gt;&lt;/div&gt;" style="text;whiteSpace=wrap;html=1;" vertex="1" parent="1">
          <mxGeometry x="490" y="580" width="230" height="100" as="geometry" />
        </mxCell>
      </root>
    </mxGraphModel>
  </diagram>
</mxfile>
